<?xml version="1.0" standalone="no"?>
<!DOCTYPE svg PUBLIC "-//W3C//DTD SVG 20010904//EN"
 "http://www.w3.org/TR/2001/REC-SVG-20010904/DTD/svg10.dtd">
<svg version="1.0" xmlns="http://www.w3.org/2000/svg"
 width="500.000000pt" height="500.000000pt" viewBox="0 0 500.000000 500.000000"
 preserveAspectRatio="xMidYMid meet">
<metadata>
Created by potrace 1.11, written by Peter Selinger 2001-2013
</metadata>
<g transform="translate(0.000000,500.000000) scale(0.100000,-0.100000)"
fill="#000000" stroke="none">
<path d="M2260 4889 c-567 -62 -1059 -297 -1455 -694 -371 -370 -602 -829
-681 -1350 -26 -168 -26 -522 0 -690 79 -521 310 -980 681 -1350 370 -371 829
-602 1350 -681 168 -26 522 -26 690 0 521 79 980 310 1350 681 371 370 602
829 681 1350 26 168 26 522 0 690 -79 521 -310 980 -681 1350 -369 369 -833
604 -1345 680 -135 20 -465 28 -590 14z m282 -727 c20 -48 87 -195 148 -327
60 -132 117 -255 125 -272 15 -33 15 -33 85 -33 l70 0 0 -162 c0 -142 3 -171
22 -225 l22 -63 123 0 123 0 0 -225 0 -225 -40 0 c-22 0 -40 -3 -40 -7 1 -5
18 -66 40 -138 l39 -130 0 98 1 97 160 0 160 0 0 -160 0 -160 -146 0 -146 0 6
-27 c30 -136 58 -342 63 -456 l6 -137 158 0 159 0 0 -160 0 -160 -160 0 -160
0 -1 83 c-1 45 -4 69 -6 52 -10 -75 -45 -200 -73 -261 -129 -285 -372 -414
-780 -414 -408 0 -651 130 -780 414 -54 119 -71 212 -77 412 -6 205 4 314 48
540 96 492 289 1015 708 1914 50 107 91 201 91 208 0 31 18 5 52 -76z"/>
<path d="M2612 3767 c-1 -81 -7 -198 -13 -260 -11 -110 -8 -197 12 -367 6 -47
9 -233 8 -415 -2 -386 -2 -422 2 -830 2 -203 -1 -351 -9 -430 -18 -165 -16
-665 3 -683 2 -2 38 2 81 8 155 24 288 78 390 158 l59 47 -217 3 -218 2 0 225
0 225 225 0 225 0 0 -212 0 -213 20 25 c38 47 99 185 122 275 21 81 23 113 23
315 -1 186 -5 247 -23 355 -25 145 -87 403 -130 540 l-28 90 -167 3 -167 2 0
225 0 225 85 0 c47 0 85 1 85 3 0 1 -10 30 -23 62 l-23 60 -142 3 -142 3 0
159 0 160 70 0 c39 0 70 2 70 5 0 9 -88 201 -132 290 l-45 89 -1 -147z m418
-1457 l0 -160 -160 0 -160 0 0 160 0 160 160 0 160 0 0 -160z m230 -450 l0
-160 -160 0 -160 0 0 160 0 160 160 0 160 0 0 -160z"/>
</g>
</svg>
