<?xml version="1.0" standalone="no"?>
<!DOCTYPE svg PUBLIC "-//W3C//DTD SVG 20010904//EN"
 "http://www.w3.org/TR/2001/REC-SVG-20010904/DTD/svg10.dtd">
<svg version="1.0" xmlns="http://www.w3.org/2000/svg"
 width="500.000000pt" height="500.000000pt" viewBox="0 0 500.000000 500.000000"
 preserveAspectRatio="xMidYMid meet">
<metadata>
Created by potrace 1.11, written by Peter Selinger 2001-2013
</metadata>
<g transform="translate(0.000000,500.000000) scale(0.100000,-0.100000)"
fill="#000000" stroke="none">
<path d="M0 2500 l0 -2500 2500 0 2500 0 0 2500 0 2500 -2500 0 -2500 0 0
-2500z m2620 1330 c32 -132 186 -606 256 -794 35 -94 64 -172 63 -175 0 -4
-23 39 -52 94 l-52 100 -3 -62 -3 -63 -79 0 -80 0 0 80 0 80 76 0 c57 0 75 3
71 13 -3 6 -22 50 -42 97 -108 251 -182 538 -199 777 l-5 68 14 -65 c7 -36 23
-103 35 -150z m-15 -430 l65 0 0 -65 0 -65 -65 0 c-58 0 -65 -2 -65 -20 0 -11
7 -20 15 -20 11 0 15 -11 15 -35 0 -22 -6 -38 -15 -41 -25 -10 -17 -24 15 -24
29 0 30 -1 30 -50 0 -48 -1 -50 -29 -50 l-29 0 -3 -287 c-2 -159 -2 -375 0
-480 l3 -193 39 0 39 0 0 -50 0 -50 -40 0 -40 0 0 -205 0 -205 70 0 70 0 0
-80 0 -80 -70 0 -70 0 0 -130 0 -130 75 0 75 0 0 -75 0 -75 -74 0 -75 0 -3
-95 c-4 -113 -5 -111 115 -102 55 4 64 4 37 -3 -19 -6 -91 -10 -160 -11 -373
-4 -651 143 -777 409 -62 133 -75 246 -49 437 37 262 76 377 336 980 270 627
292 681 351 857 33 97 75 244 95 325 19 81 38 155 42 163 4 8 8 -112 10 -267
l2 -283 65 0z m137 -210 l4 -40 -43 0 -43 0 0 40 c0 40 0 40 39 40 38 0 39 -1
43 -40z m-92 -230 l0 -40 -45 0 -45 0 0 40 0 40 45 0 45 0 0 -40z m130 -185
l0 -105 -100 0 -100 0 0 105 0 105 100 0 100 0 0 -105z m130 -35 l0 -40 -40 0
-40 0 0 40 0 40 40 0 40 0 0 -40z m-180 -130 l0 -40 -45 0 -45 0 0 40 0 40 45
0 45 0 0 -40z m230 -70 l0 -80 -80 0 -80 0 0 80 0 80 80 0 80 0 0 -80z m-305
-70 l0 -50 -52 0 -53 0 0 50 0 50 53 0 52 0 0 -50z m295 -110 l0 -40 -45 0
-45 0 0 40 0 40 45 0 45 0 0 -40z m-180 -100 l0 -80 -80 0 -80 0 0 80 0 80 80
0 80 0 0 -80z m260 -85 l0 -115 -115 0 -115 0 0 115 0 115 115 0 115 0 0 -115z
m150 -15 l0 -40 -45 0 -45 0 0 40 0 40 45 0 45 0 0 -40z m-440 -50 l0 -40 -45
0 -45 0 0 40 0 40 45 0 45 0 0 -40z m480 -90 l0 -80 -80 0 -80 0 0 80 0 80 80
0 80 0 0 -80z m-260 -80 l0 -40 -45 0 -45 0 0 40 0 40 45 0 45 0 0 -40z m-138
-105 l-3 -115 -109 0 -109 0 -3 115 -3 115 115 0 115 0 -3 -115z m508 -60 l0
-65 -65 0 -65 0 0 65 0 65 65 0 65 0 0 -65z m-180 -70 l0 -105 -102 0 -103 0
2 102 c1 57 2 104 3 106 0 1 45 2 100 2 l100 0 0 -105z m-385 -75 l0 -50 -52
0 -53 0 0 50 0 50 53 0 52 0 0 -50z m495 -20 l0 -40 -45 0 -45 0 0 40 0 40 45
0 45 0 0 -40z m-230 -100 l0 -40 -43 0 -43 0 1 40 0 40 43 0 42 0 0 -40z
m-130 -80 l0 -90 -90 0 -90 0 0 90 0 90 90 0 90 0 0 -90z m420 -80 l0 -90 -90
0 -90 0 0 90 0 90 90 0 90 0 0 -90z m-210 30 l0 -50 -50 0 -50 0 0 50 0 50 50
0 50 0 0 -50z m-80 -170 l0 -80 -80 0 -80 0 0 80 0 80 80 0 80 0 0 -80z m-310
20 l0 -50 -50 0 -50 0 0 50 0 50 50 0 50 0 0 -50z m440 -80 l0 -40 -45 0 -45
0 0 40 0 40 45 0 45 0 0 -40z m-108 -180 l-3 -90 -87 0 -87 0 0 90 0 90 90 0
90 0 -3 -90z m-212 0 l0 -50 -50 0 -50 0 0 50 0 50 50 0 50 0 0 -50z"/>
</g>
</svg>
